<svg width="24" height="24" viewBox="0 0 24 24" fill="none" xmlns="http://www.w3.org/2000/svg">
<path d="M13.0662 9.722H14.0032C15.0392 9.722 15.8782 10.568 15.8782 11.612V12.556M15.8782 11.611C15.8777 11.4875 15.9015 11.3651 15.9484 11.2507C15.9952 11.1364 16.0641 11.0325 16.1511 10.9448C16.2381 10.8571 16.3416 10.7875 16.4555 10.7398C16.5695 10.6921 16.6917 10.6674 16.8152 10.667C17.8512 10.667 18.6902 11.512 18.6902 12.556M18.6902 12.556V13.5M18.6902 12.556C18.6902 12.061 19.1302 11.685 19.6152 11.766L19.9352 11.82C20.8402 11.972 21.5022 12.76 21.5022 13.683V14.13C21.5022 16.182 21.5022 17.209 21.1922 18.026C21.0122 18.5 20.5372 19.104 20.1572 19.541C19.8282 19.919 19.6272 20.398 19.6272 20.901V22M13.0662 11.611V6.417C13.0662 5.634 12.4362 5 11.6602 5C10.8832 5 10.2542 5.634 10.2542 6.417V13.937L8.73425 12.402C8.57785 12.2433 8.38945 12.1197 8.18159 12.0394C7.97372 11.9591 7.75115 11.924 7.52867 11.9364C7.30619 11.9488 7.08889 12.0084 6.89123 12.1113C6.69356 12.2141 6.52006 12.3579 6.38225 12.533C6.16269 12.8107 6.04077 13.153 6.03535 13.5069C6.02992 13.8609 6.1413 14.2067 6.35225 14.491L9.72625 18.833C10.3712 19.664 10.7222 20.945 10.7222 22" stroke="black" stroke-width="1.5" stroke-linecap="round" stroke-linejoin="round"/>
<path d="M13.4582 9.5C14.0822 9.15324 14.602 8.6458 14.9638 8.03035C15.3255 7.4149 15.5159 6.71387 15.5152 6C15.5152 3.79 13.7282 2 11.5242 2C10.9995 2.00053 10.4799 2.1044 9.99533 2.30571C9.51071 2.50701 9.07049 2.80179 8.6998 3.17323C8.32911 3.54466 8.03521 3.98547 7.83487 4.47049C7.63454 4.95551 7.5317 5.47524 7.53223 6C7.53168 6.71397 7.72225 7.41507 8.08414 8.03053C8.44603 8.64599 8.96605 9.15337 9.59023 9.5" stroke="black" stroke-width="1.5" stroke-linecap="round"/>
<path d="M7.30405 6.02299H2.49805M2.49805 6.02299C2.49805 6.49299 3.01105 6.71699 3.33205 7.01099L4.51005 8.00999M2.49805 6.02299C2.49805 5.55299 3.01905 5.29899 3.33205 5.00099L4.51005 3.98999" stroke="black" stroke-width="1.5" stroke-linecap="round" stroke-linejoin="round"/>
</svg>
