<svg width="1919" height="703" viewBox="0 0 1919 703" fill="none" xmlns="http://www.w3.org/2000/svg">
<rect width="1920" height="703" fill="#04B4A2"/>
<mask id="mask0_323_270" style="mask-type:alpha" maskUnits="userSpaceOnUse" x="0" y="0" width="1920" height="703">
<rect width="1920" height="703" fill="#00C9B5"/>
</mask>
<g mask="url(#mask0_323_270)">
<path d="M1491.06 -678.475C1403.58 -630.085 1297.83 -625.45 1201.02 -597.046C933.674 -518.605 999.698 -295.521 1073.87 -131.225C1109.8 -51.6353 1133.98 44.2498 1083.64 125.216C1025.06 219.445 895.608 250.617 783.956 283.207C638.895 325.549 498.884 387.624 370.005 466.211C243.232 543.514 142.454 648.823 -3.66101 693.135C-156.721 739.554 -341.7 712.669 -414.767 593.194C-452.167 532.04 -455.629 455.208 -440.287 382.29C-417.954 276.148 -351.724 179.651 -338.702 73.8378C-324.987 -37.6072 -358.278 -148.676 -410.284 -242.984C-492.417 -391.923 -617.742 -516.926 -689.269 -671.036C-760.796 -825.146 -764.605 -1030.47 -625.502 -1161.79C-469.23 -1309.33 -296.093 -1270.75 -108.526 -1300.5C86.362 -1331.41 276.981 -1420.42 421.054 -1553.56C510.965 -1636.65 586.224 -1737.38 696.627 -1794.85C869.271 -1884.73 1083.49 -1839.86 1222.69 -1733.77C1387.41 -1608.23 1513.52 -1388.13 1592.84 -1205.92C1629.62 -1121.44 1658.54 -1031.1 1651.19 -936.772C1643.84 -842.446 1594.8 -742.974 1505.59 -687.038C1500.81 -684.039 1495.96 -681.188 1491.06 -678.475Z" fill="#AEEBD1" fill-opacity="0.2"/>
<path d="M2529.08 1635.6C2436.91 1641.31 2346.52 1604.87 2254.33 1590.95C1999.75 1552.52 1967.96 1757.11 1965.95 1917.48C1964.97 1995.17 1947.79 2081.5 1874.01 2127.53C1788.15 2181.1 1667.54 2157.02 1561.29 2140.83C1423.24 2119.8 1281.72 2116.57 1143.08 2130.85C1006.71 2144.9 881.17 2191.36 741.472 2171.52C595.133 2150.73 450.677 2058.84 436.113 1934.94C425.429 1843.99 493.622 1763.73 557.896 1697.15C707.472 1542.21 780.535 1377.69 756.502 1174.31C730.742 956.34 587.389 554.7 938.048 457.814C1079.08 418.848 1246.65 464.867 1382.43 502.494C1535.27 544.85 1699.88 570.983 1858.47 542.478C1955.6 525.02 2045.81 488.2 2140.63 463.667C2378.7 402.072 2611.23 491.357 2716.28 684.519C2805.26 848.107 2824.97 1073.11 2820.27 1249.85C2818.1 1331.8 2807.05 1415.48 2764.07 1488.58C2721.08 1561.69 2641.17 1623.11 2544.6 1634.23C2539.42 1634.82 2534.25 1635.28 2529.08 1635.6Z" fill="#AEEBD1" fill-opacity="0.2"/>
</g>
</svg>
