<svg width="40" height="40" viewBox="0 0 40 40" fill="none" xmlns="http://www.w3.org/2000/svg">
<path d="M6.66683 30C5.75016 30 4.96572 29.6739 4.3135 29.0217C3.66127 28.3694 3.33461 27.5844 3.3335 26.6667V8.33333C3.3335 7.41667 3.66016 6.63222 4.3135 5.98C4.96683 5.32778 5.75127 5.00111 6.66683 5H33.3335C34.2502 5 35.0352 5.32667 35.6885 5.98C36.3418 6.63333 36.6679 7.41778 36.6668 8.33333V26.6667C36.6668 27.5833 36.3407 28.3683 35.6885 29.0217C35.0363 29.675 34.2513 30.0011 33.3335 30H28.3335L29.5002 31.1667C29.6668 31.3333 29.7918 31.5211 29.8752 31.73C29.9585 31.9389 30.0002 32.1539 30.0002 32.375V33.3333C30.0002 33.8056 29.8402 34.2011 29.5202 34.52C29.2002 34.8389 28.8046 34.9989 28.3335 35H11.6668C11.1946 35 10.7991 34.84 10.4802 34.52C10.1613 34.2 10.0013 33.8044 10.0002 33.3333V32.375C10.0002 32.1528 10.0418 31.9378 10.1252 31.73C10.2085 31.5222 10.3335 31.3344 10.5002 31.1667L11.6668 30H6.66683ZM6.66683 26.6667H33.3335V8.33333H6.66683V26.6667Z" fill="white"/>
</svg>
