<svg width="40" height="40" viewBox="0 0 40 40" fill="none" xmlns="http://www.w3.org/2000/svg">
<path d="M12.8125 2.5C11.7351 2.5 10.7017 2.92801 9.93988 3.68988C9.17801 4.45175 8.75 5.48506 8.75 6.5625V33.4375C8.75 34.5149 9.17801 35.5483 9.93988 36.3101C10.7017 37.072 11.7351 37.5 12.8125 37.5H27.1875C28.2649 37.5 29.2983 37.072 30.0601 36.3101C30.822 35.5483 31.25 34.5149 31.25 33.4375V6.5625C31.25 5.48506 30.822 4.45175 30.0601 3.68988C29.2983 2.92801 28.2649 2.5 27.1875 2.5H12.8125ZM17.5 30H22.5C22.8315 30 23.1495 30.1317 23.3839 30.3661C23.6183 30.6005 23.75 30.9185 23.75 31.25C23.75 31.5815 23.6183 31.8995 23.3839 32.1339C23.1495 32.3683 22.8315 32.5 22.5 32.5H17.5C17.1685 32.5 16.8505 32.3683 16.6161 32.1339C16.3817 31.8995 16.25 31.5815 16.25 31.25C16.25 30.9185 16.3817 30.6005 16.6161 30.3661C16.8505 30.1317 17.1685 30 17.5 30Z" fill="white"/>
</svg>
