<svg width="25" height="24" viewBox="0 0 25 24" fill="none" xmlns="http://www.w3.org/2000/svg">
<path d="M6.64 14.9693L9.468 17.7973C9.28351 17.9883 9.06282 18.1407 8.81881 18.2455C8.5748 18.3503 8.31236 18.4055 8.0468 18.4078C7.78124 18.4101 7.51788 18.3595 7.27209 18.2589C7.0263 18.1584 6.803 18.0099 6.61521 17.8221C6.42742 17.6343 6.27892 17.411 6.17836 17.1652C6.07779 16.9194 6.02719 16.656 6.0295 16.3905C6.03181 16.1249 6.08698 15.8625 6.1918 15.6185C6.29662 15.3745 6.44898 15.1538 6.64 14.9693ZM15.507 20.2943L14.801 21.0003L3.5 9.69929L4.206 8.99329L5.308 9.15029C6.062 9.25829 6.997 9.02829 7.385 8.64029L11.27 4.75629C12.3975 3.65 13.9161 3.03359 15.4957 3.04108C17.0753 3.04858 18.588 3.67939 19.705 4.79632C20.8219 5.91326 21.4527 7.426 21.4602 9.00557C21.4677 10.5851 20.8513 12.1038 19.745 13.2313L15.86 17.1163C15.472 17.5043 15.242 18.4393 15.35 19.1933L15.507 20.2943Z" fill="white"/>
</svg>
