<svg width="64" height="64" viewBox="0 0 64 64" fill="none" xmlns="http://www.w3.org/2000/svg">
<path d="M28.1733 5.53333C27.1227 6.03733 26.16 6.85866 24.8133 8.00799L24.6027 8.18399C23.44 9.23204 21.9525 9.8487 20.3893 9.93066L20.1173 9.95199C18.352 10.0933 17.0907 10.192 15.992 10.5813C14.7433 11.0225 13.6091 11.7373 12.6725 12.6735C11.7358 13.6097 11.0204 14.7435 10.5787 15.992C10.192 17.0907 10.0933 18.352 9.95199 20.1173L9.93066 20.3893C9.8487 21.9525 9.23204 23.44 8.18399 24.6027L8.00799 24.8107C6.85866 26.16 6.03466 27.1227 5.53333 28.1733C4.96267 29.3683 4.6665 30.6758 4.6665 32C4.6665 33.3242 4.96267 34.6317 5.53333 35.8267C6.03733 36.8773 6.85866 37.84 8.00799 39.1867L8.18399 39.3973C9.27733 40.6773 9.79466 41.9013 9.93066 43.6107L9.95199 43.8827C10.0933 45.648 10.192 46.9093 10.5813 48.008C11.0225 49.2567 11.7373 50.3909 12.6735 51.3275C13.6097 52.2642 14.7435 52.9796 15.992 53.4213C17.0907 53.808 18.352 53.9067 20.1173 54.048L20.3893 54.0693C22.0667 54.2027 23.296 54.704 24.6027 55.816L24.8133 55.992C26.16 57.1413 27.1227 57.9653 28.1733 58.4667C29.3683 59.0373 30.6758 59.3335 32 59.3335C33.3242 59.3335 34.6317 59.0373 35.8267 58.4667C36.8773 57.9627 37.84 57.1413 39.1867 55.992L39.3973 55.816C40.6773 54.7227 41.9013 54.2053 43.6107 54.0693L43.8827 54.048C45.648 53.9067 46.9093 53.808 48.008 53.4187C49.2567 52.9775 50.3909 52.2627 51.3275 51.3265C52.2642 50.3903 52.9796 49.2564 53.4213 48.008C53.808 46.9093 53.9067 45.648 54.048 43.8827L54.0693 43.6107C54.2027 41.9333 54.704 40.704 55.816 39.3973L55.992 39.1867C57.1413 37.84 57.9653 36.8773 58.4667 35.8267C59.0373 34.6317 59.3335 33.3242 59.3335 32C59.3335 30.6758 59.0373 29.3683 58.4667 28.1733C57.9627 27.1227 57.1413 26.16 55.992 24.8133L55.816 24.6027C54.7679 23.44 54.1513 21.9525 54.0693 20.3893L54.048 20.1173C53.9067 18.352 53.808 17.0907 53.4187 15.992C52.9775 14.7433 52.2627 13.6091 51.3265 12.6725C50.3903 11.7358 49.2564 11.0204 48.008 10.5787C46.9093 10.192 45.648 10.0933 43.8827 9.95199L43.6107 9.93066C42.0475 9.8487 40.56 9.23204 39.3973 8.18399L39.1867 8.00799C37.84 6.85866 36.8773 6.03466 35.8267 5.53333C34.6317 4.96267 33.3242 4.6665 32 4.6665C30.6758 4.6665 29.3683 4.96267 28.1733 5.53333ZM42.0613 23.1787C42.4909 23.4896 42.7793 23.9583 42.8634 24.4819C42.9474 25.0055 42.82 25.541 42.5093 25.9707L32.9173 39.2533C32.5064 39.8225 31.9724 40.2917 31.355 40.6259C30.7377 40.96 30.0529 41.1506 29.3516 41.1834C28.6504 41.2162 27.9508 41.0904 27.3049 40.8153C26.6591 40.5403 26.0836 40.123 25.6213 39.5947L21.6053 35.008C21.4322 34.8101 21.2997 34.5801 21.2154 34.331C21.1311 34.082 21.0967 33.8187 21.1142 33.5564C21.1316 33.294 21.2006 33.0377 21.3171 32.802C21.4337 32.5663 21.5955 32.3558 21.7933 32.1827C21.9912 32.0095 22.2212 31.877 22.4703 31.7927C22.7193 31.7084 22.9826 31.6741 23.2449 31.6915C23.5073 31.709 23.7636 31.7779 23.9993 31.8945C24.235 32.011 24.4455 32.1728 24.6187 32.3707L28.632 36.96C28.698 37.0351 28.78 37.0944 28.872 37.1335C28.964 37.1726 29.0637 37.1905 29.1635 37.1859C29.2634 37.1813 29.3609 37.1543 29.449 37.1069C29.537 37.0595 29.6132 36.9928 29.672 36.912L39.2667 23.6293C39.4204 23.4161 39.6147 23.2352 39.8385 23.0971C40.0622 22.959 40.311 22.8664 40.5705 22.8245C40.8301 22.7827 41.0954 22.7924 41.3512 22.8532C41.607 22.9139 41.8483 23.0245 42.0613 23.1787Z" fill="#339295"/>
</svg>
