<svg width="40" height="40" viewBox="0 0 40 40" fill="none" xmlns="http://www.w3.org/2000/svg">
<path d="M33.3846 10.5697L20.3077 4.75428C20.2114 4.70902 20.1063 4.68555 20 4.68555C19.8936 4.68555 19.7885 4.70902 19.6923 4.75428L6.61535 10.5697C6.48013 10.6287 6.36473 10.7253 6.2829 10.848C6.20106 10.9708 6.15625 11.1145 6.15381 11.262V15.385C6.15381 22.9543 10.6769 32.1235 19.723 35.2927C19.9026 35.3537 20.0973 35.3537 20.2769 35.2927C29.323 32.1235 33.8461 22.9543 33.8461 15.385V11.262C33.8437 11.1145 33.7989 10.9708 33.717 10.848C33.6352 10.7253 33.5198 10.6287 33.3846 10.5697ZM27.2123 15.662L19.0892 26.0035C18.9711 26.1526 18.823 26.2751 18.6544 26.3631C18.4858 26.4511 18.3006 26.5026 18.1107 26.5143L18.0307 26.5174C17.673 26.5167 17.3301 26.3746 17.0769 26.122L12.8923 21.9374C12.6399 21.6844 12.4984 21.3415 12.4988 20.9842C12.4992 20.6269 12.6416 20.2843 12.8946 20.032C13.1476 19.7796 13.4904 19.6381 13.8477 19.6385C14.2051 19.6389 14.5476 19.7813 14.8 20.0343L17.9107 23.145L25.0953 13.9989C25.32 13.7297 25.6406 13.5587 25.9893 13.522C26.3379 13.4854 26.6871 13.5861 26.9628 13.8027C27.2384 14.0193 27.4188 14.3347 27.4657 14.6822C27.5126 15.0296 27.4222 15.3816 27.2138 15.6635L27.2123 15.662Z" fill="white"/>
</svg>
