<svg width="40" height="40" viewBox="0 0 40 40" fill="none" xmlns="http://www.w3.org/2000/svg">
<path d="M22.5 26.667C22.5 27.33 22.2366 27.9659 21.7678 28.4348C21.2989 28.9036 20.663 29.167 20 29.167C19.337 29.167 18.7011 28.9036 18.2322 28.4348C17.7634 27.9659 17.5 27.33 17.5 26.667C17.5 26.004 17.7634 25.3681 18.2322 24.8992C18.7011 24.4304 19.337 24.167 20 24.167C20.663 24.167 21.2989 24.4304 21.7678 24.8992C22.2366 25.3681 22.5 26.004 22.5 26.667Z" fill="white"/>
<path d="M23.9117 1.09961L29.2117 8.52628L32.7067 7.33461L35.8967 16.6663H37.5V36.6663H2.5V16.6663H3.35V16.6496L4.43 16.6596L23.9117 1.09961ZM15.6617 16.6663H32.375L30.6467 11.6113L28.11 12.4229L15.6617 16.6663ZM13.065 14.0279L25.9167 9.64961L23.2433 5.89961L13.065 14.0279ZM9.16667 19.9996H5.83333V23.3329C6.71739 23.3329 7.56523 22.9818 8.19036 22.3566C8.81548 21.7315 9.16667 20.8837 9.16667 19.9996ZM25.8333 26.6663C25.8333 25.9002 25.6824 25.1417 25.3893 24.434C25.0961 23.7262 24.6665 23.0832 24.1248 22.5415C23.5831 21.9998 22.9401 21.5701 22.2323 21.277C21.5246 20.9838 20.766 20.8329 20 20.8329C19.234 20.8329 18.4754 20.9838 17.7677 21.277C17.0599 21.5701 16.4169 21.9998 15.8752 22.5415C15.3335 23.0832 14.9039 23.7262 14.6107 24.434C14.3175 25.1417 14.1667 25.9002 14.1667 26.6663C14.1667 28.2134 14.7812 29.6971 15.8752 30.7911C16.9692 31.885 18.4529 32.4996 20 32.4996C21.5471 32.4996 23.0308 31.885 24.1248 30.7911C25.2188 29.6971 25.8333 28.2134 25.8333 26.6663ZM34.1667 33.3329V29.9996C33.2826 29.9996 32.4348 30.3508 31.8096 30.9759C31.1845 31.601 30.8333 32.4489 30.8333 33.3329H34.1667ZM30.8333 19.9996C30.8333 20.8837 31.1845 21.7315 31.8096 22.3566C32.4348 22.9818 33.2826 23.3329 34.1667 23.3329V19.9996H30.8333ZM5.83333 33.3329H9.16667C9.16667 32.4489 8.81548 31.601 8.19036 30.9759C7.56523 30.3508 6.71739 29.9996 5.83333 29.9996V33.3329Z" fill="white"/>
</svg>
