<svg width="40" height="40" viewBox="0 0 40 40" fill="none" xmlns="http://www.w3.org/2000/svg">
<path d="M22.4619 4C23.1415 4.00016 23.6924 4.55179 23.6924 5.23145V33.5391H26.1543V12.6162C26.1543 11.9365 26.705 11.3848 27.3848 11.3848H32.3076C32.9874 11.3848 33.5391 11.9365 33.5391 12.6162V33.5391H34.7695C35.0958 33.5391 35.4089 33.6688 35.6396 33.8994C35.8705 34.1302 36 34.4441 36 34.7705C35.9999 35.0968 35.8704 35.4099 35.6396 35.6406C35.4088 35.8713 35.0959 36.001 34.7695 36.001H5.23047C4.90415 36.001 4.59115 35.8713 4.36035 35.6406C4.12961 35.4099 4.00008 35.0968 4 34.7705C4 34.4441 4.12953 34.1302 4.36035 33.8994C4.59113 33.6688 4.90423 33.5391 5.23047 33.5391H6.46094V20.001C6.46094 19.3212 7.01263 18.7695 7.69238 18.7695H12.6152C13.295 18.7696 13.8457 19.3212 13.8457 20.001V33.5391H16.3076V5.23145C16.3076 4.55179 16.8585 4.00016 17.5381 4H22.4619Z" fill="white"/>
</svg>
