<svg width="41" height="40" viewBox="0 0 41 40" fill="none" xmlns="http://www.w3.org/2000/svg">
<path d="M14.9168 18.667C13.1487 18.667 11.453 17.9646 10.2028 16.7144C8.95254 15.4641 8.25016 13.7684 8.25016 12.0003V6.66699C8.25016 6.31337 8.39064 5.97423 8.64069 5.72418C8.89074 5.47413 9.22987 5.33366 9.5835 5.33366H10.9168C11.2705 5.33366 11.6096 5.19318 11.8596 4.94313C12.1097 4.69309 12.2502 4.35395 12.2502 4.00033C12.2502 3.6467 12.1097 3.30756 11.8596 3.05752C11.6096 2.80747 11.2705 2.66699 10.9168 2.66699H9.5835C8.52263 2.66699 7.50521 3.08842 6.75507 3.83857C6.00492 4.58871 5.5835 5.60613 5.5835 6.66699V12.0003C5.58521 13.5066 5.95253 14.99 6.6539 16.3231C7.35527 17.6562 8.36973 18.7991 9.61016 19.6537C10.8031 20.7034 11.7705 21.9844 12.4535 23.4192C13.1365 24.854 13.5209 26.4125 13.5835 28.0003C13.5835 30.4757 14.5668 32.8496 16.3172 34.6C18.0675 36.3503 20.4415 37.3337 22.9168 37.3337C25.3922 37.3337 27.7662 36.3503 29.5165 34.6C31.2668 32.8496 32.2502 30.4757 32.2502 28.0003V26.4803C33.507 26.1558 34.6024 25.384 35.331 24.3097C36.0595 23.2353 36.3712 21.9321 36.2077 20.6443C36.0441 19.3566 35.4165 18.1727 34.4425 17.3146C33.4685 16.4564 32.2149 15.983 30.9168 15.983C29.6187 15.983 28.3652 16.4564 27.3912 17.3146C26.4172 18.1727 25.7896 19.3566 25.626 20.6443C25.4624 21.9321 25.7741 23.2353 26.5027 24.3097C27.2312 25.384 28.3266 26.1558 29.5835 26.4803V28.0003C29.5835 29.7684 28.8811 31.4641 27.6309 32.7144C26.3806 33.9646 24.6849 34.667 22.9168 34.667C21.1487 34.667 19.453 33.9646 18.2028 32.7144C16.9525 31.4641 16.2502 29.7684 16.2502 28.0003C16.3161 26.4105 16.7047 24.8508 17.3924 23.4159C18.08 21.981 19.0523 20.701 20.2502 19.6537C21.4857 18.7961 22.4949 17.6519 23.1916 16.319C23.8882 14.9861 24.2514 13.5043 24.2502 12.0003V6.66699C24.2502 5.60613 23.8287 4.58871 23.0786 3.83857C22.3284 3.08842 21.311 2.66699 20.2502 2.66699H18.9168C18.5632 2.66699 18.2241 2.80747 17.974 3.05752C17.724 3.30756 17.5835 3.6467 17.5835 4.00033C17.5835 4.35395 17.724 4.69309 17.974 4.94313C18.2241 5.19318 18.5632 5.33366 18.9168 5.33366H20.2502C20.6038 5.33366 20.9429 5.47413 21.193 5.72418C21.443 5.97423 21.5835 6.31337 21.5835 6.66699V12.0003C21.5835 12.8758 21.4111 13.7427 21.076 14.5515C20.741 15.3604 20.2499 16.0953 19.6309 16.7144C19.0118 17.3334 18.2769 17.8245 17.4681 18.1595C16.6592 18.4946 15.7923 18.667 14.9168 18.667ZM30.9168 24.0003C30.2096 24.0003 29.5313 23.7194 29.0312 23.2193C28.5311 22.7192 28.2502 22.0409 28.2502 21.3337C28.2502 20.6264 28.5311 19.9481 29.0312 19.448C29.5313 18.9479 30.2096 18.667 30.9168 18.667C31.6241 18.667 32.3024 18.9479 32.8024 19.448C33.3025 19.9481 33.5835 20.6264 33.5835 21.3337C33.5835 22.0409 33.3025 22.7192 32.8024 23.2193C32.3024 23.7194 31.6241 24.0003 30.9168 24.0003Z" fill="white"/>
</svg>
