<svg width="119" height="28" viewBox="0 0 119 28" fill="none" xmlns="http://www.w3.org/2000/svg">
<g clip-path="url(#clip0_1_31)">
<path d="M0 0.5H28V27.5H0V0.5Z" fill="#339295"/>
<path d="M10.3553 15.8026C10.8833 14.9284 12.0212 14.6469 12.897 15.174L22.923 21.2081C23.7988 21.7352 24.0808 22.8712 23.5528 23.7455C23.0248 24.6197 21.8867 24.9012 21.011 24.3741L10.985 18.34C10.1092 17.8129 9.82727 16.6769 10.3553 15.8026Z" fill="white"/>
<path d="M21.9999 4.1243C23.0225 4.12495 23.851 4.95305 23.8504 5.97392L23.8398 22.7922C23.8391 23.8131 23.0096 24.6402 21.987 24.6396C20.9643 24.6389 20.1358 23.8108 20.1365 22.7899L20.147 5.97159C20.1477 4.95072 20.9772 4.12366 21.9999 4.1243Z" fill="white"/>
<path d="M4.25534 4.44796C4.77327 3.5677 5.90795 3.27326 6.78974 3.79029L16.8745 9.70347C17.7563 10.2205 18.0513 11.3533 17.5333 12.2335C17.0154 13.1138 15.8807 13.4082 14.999 12.8912L4.91415 6.97797C4.03237 6.46094 3.73741 5.32822 4.25534 4.44796Z" fill="#FEFEFE"/>
<path d="M5.85133 3.53568C6.87397 3.53534 7.70326 4.36264 7.7036 5.38351L7.70923 22.2018C7.70957 23.2227 6.88083 24.0505 5.85819 24.0509C4.83555 24.0512 4.00626 23.2239 4.00591 22.203L4.00029 5.38475C3.99995 4.36388 4.82868 3.53602 5.85133 3.53568Z" fill="#FEFEFE"/>
</g>
<path d="M40.4716 11.0625C40.4186 10.5663 40.1951 10.1799 39.8011 9.90341C39.411 9.62689 38.9034 9.48864 38.2784 9.48864C37.839 9.48864 37.4621 9.55492 37.1477 9.6875C36.8333 9.82008 36.5928 10 36.4261 10.2273C36.2595 10.4545 36.1742 10.714 36.1705 11.0057C36.1705 11.2481 36.2254 11.4583 36.3352 11.6364C36.4489 11.8144 36.6023 11.9659 36.7955 12.0909C36.9886 12.2121 37.2027 12.3144 37.4375 12.3977C37.6723 12.4811 37.9091 12.5511 38.1477 12.608L39.2386 12.8807C39.678 12.983 40.1004 13.1212 40.5057 13.2955C40.9148 13.4697 41.2803 13.6894 41.6023 13.9545C41.928 14.2197 42.1856 14.5398 42.375 14.9148C42.5644 15.2898 42.6591 15.7292 42.6591 16.233C42.6591 16.9148 42.4848 17.5152 42.1364 18.0341C41.7879 18.5492 41.2841 18.9527 40.625 19.2443C39.9697 19.5322 39.1761 19.6761 38.2443 19.6761C37.339 19.6761 36.553 19.536 35.8864 19.2557C35.2235 18.9754 34.7045 18.5663 34.3295 18.0284C33.9583 17.4905 33.7576 16.8352 33.7273 16.0625H35.8011C35.8314 16.4678 35.9564 16.8049 36.1761 17.0739C36.3958 17.3428 36.6818 17.5436 37.0341 17.6761C37.3902 17.8087 37.7879 17.875 38.2273 17.875C38.6856 17.875 39.0871 17.8068 39.4318 17.6705C39.7803 17.5303 40.053 17.3371 40.25 17.0909C40.447 16.8409 40.5473 16.5492 40.5511 16.2159C40.5473 15.9129 40.4583 15.6629 40.2841 15.4659C40.1098 15.2652 39.8655 15.0985 39.5511 14.9659C39.2405 14.8295 38.8769 14.7083 38.4602 14.6023L37.1364 14.2614C36.178 14.0152 35.4205 13.642 34.8636 13.142C34.3106 12.6383 34.0341 11.9697 34.0341 11.1364C34.0341 10.4508 34.2197 9.85038 34.5909 9.33523C34.9659 8.82008 35.4754 8.42045 36.1193 8.13636C36.7633 7.84848 37.4924 7.70455 38.3068 7.70455C39.1326 7.70455 39.8561 7.84848 40.4773 8.13636C41.1023 8.42045 41.5928 8.81629 41.9489 9.32386C42.3049 9.82765 42.4886 10.4072 42.5 11.0625H40.4716ZM48.2543 19.6705C47.383 19.6705 46.6349 19.4792 46.0099 19.0966C45.3887 18.714 44.9096 18.1856 44.5724 17.5114C44.2391 16.8333 44.0724 16.053 44.0724 15.1705C44.0724 14.2841 44.2429 13.5019 44.5838 12.8239C44.9247 12.142 45.4058 11.6117 46.027 11.233C46.652 10.8504 47.3906 10.6591 48.2429 10.6591C48.9512 10.6591 49.5781 10.7898 50.1236 11.0511C50.6728 11.3087 51.1103 11.6742 51.4361 12.1477C51.7618 12.6174 51.9474 13.1667 51.9929 13.7955H50.027C49.9474 13.375 49.758 13.0246 49.4588 12.7443C49.1634 12.4602 48.7675 12.3182 48.2713 12.3182C47.8509 12.3182 47.4815 12.4318 47.1634 12.6591C46.8452 12.8826 46.5971 13.2045 46.419 13.625C46.2448 14.0455 46.1577 14.5492 46.1577 15.1364C46.1577 15.7311 46.2448 16.2424 46.419 16.6705C46.5933 17.0947 46.8376 17.4223 47.152 17.6534C47.4702 17.8807 47.8433 17.9943 48.2713 17.9943C48.5743 17.9943 48.8452 17.9375 49.0838 17.8239C49.3262 17.7064 49.5289 17.5379 49.6918 17.3182C49.8546 17.0985 49.9664 16.8314 50.027 16.517H51.9929C51.9437 17.1345 51.7618 17.6818 51.4474 18.1591C51.133 18.6326 50.705 19.0038 50.1634 19.2727C49.6217 19.5379 48.9853 19.6705 48.2543 19.6705ZM57.4886 19.6705C56.6364 19.6705 55.8977 19.483 55.2727 19.108C54.6477 18.733 54.1629 18.2083 53.8182 17.5341C53.4773 16.8598 53.3068 16.072 53.3068 15.1705C53.3068 14.2689 53.4773 13.4792 53.8182 12.8011C54.1629 12.1231 54.6477 11.5966 55.2727 11.2216C55.8977 10.8466 56.6364 10.6591 57.4886 10.6591C58.3409 10.6591 59.0795 10.8466 59.7045 11.2216C60.3295 11.5966 60.8125 12.1231 61.1534 12.8011C61.4981 13.4792 61.6705 14.2689 61.6705 15.1705C61.6705 16.072 61.4981 16.8598 61.1534 17.5341C60.8125 18.2083 60.3295 18.733 59.7045 19.108C59.0795 19.483 58.3409 19.6705 57.4886 19.6705ZM57.5 18.0227C57.9621 18.0227 58.3485 17.8958 58.6591 17.642C58.9697 17.3845 59.2008 17.0398 59.3523 16.608C59.5076 16.1761 59.5852 15.6951 59.5852 15.1648C59.5852 14.6307 59.5076 14.1477 59.3523 13.7159C59.2008 13.2803 58.9697 12.9337 58.6591 12.6761C58.3485 12.4186 57.9621 12.2898 57.5 12.2898C57.0265 12.2898 56.6326 12.4186 56.3182 12.6761C56.0076 12.9337 55.7746 13.2803 55.6193 13.7159C55.4678 14.1477 55.392 14.6307 55.392 15.1648C55.392 15.6951 55.4678 16.1761 55.6193 16.608C55.7746 17.0398 56.0076 17.3845 56.3182 17.642C56.6326 17.8958 57.0265 18.0227 57.5 18.0227ZM65.473 7.86364V19.5H63.4162V7.86364H65.473ZM67.5881 19.5V10.7727H69.6449V19.5H67.5881ZM68.6222 9.53409C68.2964 9.53409 68.0161 9.42614 67.7812 9.21023C67.5464 8.99053 67.429 8.72727 67.429 8.42045C67.429 8.10985 67.5464 7.84659 67.7812 7.63068C68.0161 7.41098 68.2964 7.30114 68.6222 7.30114C68.9517 7.30114 69.232 7.41098 69.4631 7.63068C69.6979 7.84659 69.8153 8.10985 69.8153 8.42045C69.8153 8.72727 69.6979 8.99053 69.4631 9.21023C69.232 9.42614 68.9517 9.53409 68.6222 9.53409ZM75.5668 19.6705C74.7145 19.6705 73.9759 19.483 73.3509 19.108C72.7259 18.733 72.241 18.2083 71.8963 17.5341C71.5554 16.8598 71.3849 16.072 71.3849 15.1705C71.3849 14.2689 71.5554 13.4792 71.8963 12.8011C72.241 12.1231 72.7259 11.5966 73.3509 11.2216C73.9759 10.8466 74.7145 10.6591 75.5668 10.6591C76.419 10.6591 77.1577 10.8466 77.7827 11.2216C78.4077 11.5966 78.8906 12.1231 79.2315 12.8011C79.5762 13.4792 79.7486 14.2689 79.7486 15.1705C79.7486 16.072 79.5762 16.8598 79.2315 17.5341C78.8906 18.2083 78.4077 18.733 77.7827 19.108C77.1577 19.483 76.419 19.6705 75.5668 19.6705ZM75.5781 18.0227C76.0402 18.0227 76.4266 17.8958 76.7372 17.642C77.0478 17.3845 77.2789 17.0398 77.4304 16.608C77.5857 16.1761 77.6634 15.6951 77.6634 15.1648C77.6634 14.6307 77.5857 14.1477 77.4304 13.7159C77.2789 13.2803 77.0478 12.9337 76.7372 12.6761C76.4266 12.4186 76.0402 12.2898 75.5781 12.2898C75.1046 12.2898 74.7107 12.4186 74.3963 12.6761C74.0857 12.9337 73.8527 13.2803 73.6974 13.7159C73.5459 14.1477 73.4702 14.6307 73.4702 15.1648C73.4702 15.6951 73.5459 16.1761 73.6974 16.608C73.8527 17.0398 74.0857 17.3845 74.3963 17.642C74.7107 17.8958 75.1046 18.0227 75.5781 18.0227ZM87.9091 11.0625C87.8561 10.5663 87.6326 10.1799 87.2386 9.90341C86.8485 9.62689 86.3409 9.48864 85.7159 9.48864C85.2765 9.48864 84.8996 9.55492 84.5852 9.6875C84.2708 9.82008 84.0303 10 83.8636 10.2273C83.697 10.4545 83.6117 10.714 83.608 11.0057C83.608 11.2481 83.6629 11.4583 83.7727 11.6364C83.8864 11.8144 84.0398 11.9659 84.233 12.0909C84.4261 12.2121 84.6402 12.3144 84.875 12.3977C85.1098 12.4811 85.3466 12.5511 85.5852 12.608L86.6761 12.8807C87.1155 12.983 87.5379 13.1212 87.9432 13.2955C88.3523 13.4697 88.7178 13.6894 89.0398 13.9545C89.3655 14.2197 89.6231 14.5398 89.8125 14.9148C90.0019 15.2898 90.0966 15.7292 90.0966 16.233C90.0966 16.9148 89.9223 17.5152 89.5739 18.0341C89.2254 18.5492 88.7216 18.9527 88.0625 19.2443C87.4072 19.5322 86.6136 19.6761 85.6818 19.6761C84.7765 19.6761 83.9905 19.536 83.3239 19.2557C82.661 18.9754 82.142 18.5663 81.767 18.0284C81.3958 17.4905 81.1951 16.8352 81.1648 16.0625H83.2386C83.2689 16.4678 83.3939 16.8049 83.6136 17.0739C83.8333 17.3428 84.1193 17.5436 84.4716 17.6761C84.8277 17.8087 85.2254 17.875 85.6648 17.875C86.1231 17.875 86.5246 17.8068 86.8693 17.6705C87.2178 17.5303 87.4905 17.3371 87.6875 17.0909C87.8845 16.8409 87.9848 16.5492 87.9886 16.2159C87.9848 15.9129 87.8958 15.6629 87.7216 15.4659C87.5473 15.2652 87.303 15.0985 86.9886 14.9659C86.678 14.8295 86.3144 14.7083 85.8977 14.6023L84.5739 14.2614C83.6155 14.0152 82.858 13.642 82.3011 13.142C81.7481 12.6383 81.4716 11.9697 81.4716 11.1364C81.4716 10.4508 81.6572 9.85038 82.0284 9.33523C82.4034 8.82008 82.9129 8.42045 83.5568 8.13636C84.2008 7.84848 84.9299 7.70455 85.7443 7.70455C86.5701 7.70455 87.2936 7.84848 87.9148 8.13636C88.5398 8.42045 89.0303 8.81629 89.3864 9.32386C89.7424 9.82765 89.9261 10.4072 89.9375 11.0625H87.9091ZM95.6918 19.6705C94.8205 19.6705 94.0724 19.4792 93.4474 19.0966C92.8262 18.714 92.3471 18.1856 92.0099 17.5114C91.6766 16.8333 91.5099 16.053 91.5099 15.1705C91.5099 14.2841 91.6804 13.5019 92.0213 12.8239C92.3622 12.142 92.8433 11.6117 93.4645 11.233C94.0895 10.8504 94.8281 10.6591 95.6804 10.6591C96.3887 10.6591 97.0156 10.7898 97.5611 11.0511C98.1103 11.3087 98.5478 11.6742 98.8736 12.1477C99.1993 12.6174 99.3849 13.1667 99.4304 13.7955H97.4645C97.3849 13.375 97.1955 13.0246 96.8963 12.7443C96.6009 12.4602 96.205 12.3182 95.7088 12.3182C95.2884 12.3182 94.919 12.4318 94.6009 12.6591C94.2827 12.8826 94.0346 13.2045 93.8565 13.625C93.6823 14.0455 93.5952 14.5492 93.5952 15.1364C93.5952 15.7311 93.6823 16.2424 93.8565 16.6705C94.0308 17.0947 94.2751 17.4223 94.5895 17.6534C94.9077 17.8807 95.2808 17.9943 95.7088 17.9943C96.0118 17.9943 96.2827 17.9375 96.5213 17.8239C96.7637 17.7064 96.9664 17.5379 97.1293 17.3182C97.2921 17.0985 97.4039 16.8314 97.4645 16.517H99.4304C99.3812 17.1345 99.1993 17.6818 98.8849 18.1591C98.5705 18.6326 98.1425 19.0038 97.6009 19.2727C97.0592 19.5379 96.4228 19.6705 95.6918 19.6705ZM103.631 19.6761C103.078 19.6761 102.58 19.5777 102.136 19.3807C101.697 19.1799 101.348 18.8845 101.091 18.4943C100.837 18.1042 100.71 17.6231 100.71 17.0511C100.71 16.5587 100.801 16.1515 100.983 15.8295C101.165 15.5076 101.413 15.25 101.727 15.0568C102.042 14.8636 102.396 14.7178 102.79 14.6193C103.188 14.517 103.598 14.4432 104.023 14.3977C104.534 14.3447 104.949 14.2973 105.267 14.2557C105.585 14.2102 105.816 14.142 105.96 14.0511C106.108 13.9564 106.182 13.8106 106.182 13.6136V13.5795C106.182 13.1515 106.055 12.8201 105.801 12.5852C105.547 12.3504 105.182 12.233 104.705 12.233C104.201 12.233 103.801 12.3428 103.506 12.5625C103.214 12.7822 103.017 13.0417 102.915 13.3409L100.994 13.0682C101.146 12.5379 101.396 12.0947 101.744 11.7386C102.093 11.3788 102.519 11.1098 103.023 10.9318C103.527 10.75 104.083 10.6591 104.693 10.6591C105.114 10.6591 105.532 10.7083 105.949 10.8068C106.366 10.9053 106.746 11.0682 107.091 11.2955C107.436 11.5189 107.712 11.8239 107.92 12.2102C108.133 12.5966 108.239 13.0795 108.239 13.6591V19.5H106.261V18.3011H106.193C106.068 18.5436 105.892 18.7708 105.665 18.983C105.441 19.1913 105.159 19.3598 104.818 19.4886C104.481 19.6136 104.085 19.6761 103.631 19.6761ZM104.165 18.1648C104.578 18.1648 104.936 18.0833 105.239 17.9205C105.542 17.7538 105.775 17.5341 105.938 17.2614C106.104 16.9886 106.188 16.6913 106.188 16.3693V15.3409C106.123 15.3939 106.013 15.4432 105.858 15.4886C105.706 15.5341 105.536 15.5739 105.347 15.608C105.157 15.642 104.97 15.6723 104.784 15.6989C104.598 15.7254 104.438 15.7481 104.301 15.767C103.994 15.8087 103.72 15.8769 103.477 15.9716C103.235 16.0663 103.044 16.1989 102.903 16.3693C102.763 16.536 102.693 16.7519 102.693 17.017C102.693 17.3958 102.831 17.6818 103.108 17.875C103.384 18.0682 103.737 18.1648 104.165 18.1648ZM112.364 14.3864V19.5H110.307V10.7727H112.273V12.2557H112.375C112.576 11.767 112.896 11.3788 113.335 11.0909C113.778 10.803 114.326 10.6591 114.977 10.6591C115.58 10.6591 116.104 10.7879 116.551 11.0455C117.002 11.303 117.35 11.6761 117.597 12.1648C117.847 12.6534 117.97 13.2462 117.966 13.9432V19.5H115.909V14.2614C115.909 13.678 115.758 13.2216 115.455 12.892C115.155 12.5625 114.741 12.3977 114.21 12.3977C113.85 12.3977 113.53 12.4773 113.25 12.6364C112.973 12.7917 112.756 13.017 112.597 13.3125C112.441 13.608 112.364 13.9659 112.364 14.3864Z" fill="#101828"/>
<defs>
<clipPath id="clip0_1_31">
<rect y="0.5" width="28" height="27" rx="4" fill="white"/>
</clipPath>
</defs>
</svg>
