<svg width="110" height="28" viewBox="0 0 110 28" fill="none" xmlns="http://www.w3.org/2000/svg">
<g clip-path="url(#clip0_1_31)">
<path d="M0 0.5H28V27.5H0V0.5Z" fill="#339295"/>
<path d="M10.3553 15.8026C10.8833 14.9284 12.0212 14.6469 12.897 15.174L22.923 21.2081C23.7988 21.7352 24.0808 22.8712 23.5528 23.7455C23.0248 24.6197 21.8867 24.9012 21.011 24.3741L10.985 18.34C10.1092 17.8129 9.82727 16.6769 10.3553 15.8026Z" fill="white"/>
<path d="M21.9999 4.1243C23.0225 4.12495 23.851 4.95305 23.8504 5.97392L23.8398 22.7922C23.8391 23.8131 23.0096 24.6402 21.987 24.6396C20.9643 24.6389 20.1358 23.8108 20.1365 22.7899L20.147 5.97159C20.1477 4.95072 20.9772 4.12366 21.9999 4.1243Z" fill="white"/>
<path d="M4.25534 4.44796C4.77327 3.5677 5.90795 3.27326 6.78974 3.79029L16.8745 9.70347C17.7563 10.2205 18.0513 11.3533 17.5333 12.2335C17.0154 13.1138 15.8807 13.4082 14.999 12.8912L4.91415 6.97797C4.03237 6.46094 3.73741 5.32822 4.25534 4.44796Z" fill="#FEFEFE"/>
<path d="M5.85133 3.53568C6.87397 3.53534 7.70326 4.36264 7.7036 5.38351L7.70923 22.2018C7.70957 23.2227 6.88083 24.0505 5.85819 24.0509C4.83555 24.0512 4.00626 23.2239 4.00591 22.203L4.00029 5.38475C3.99995 4.36388 4.82868 3.53602 5.85133 3.53568Z" fill="#FEFEFE"/>
</g>
<path d="M40.4716 11.0625C40.4186 10.5663 40.1951 10.1799 39.8011 9.90341C39.411 9.62689 38.9034 9.48864 38.2784 9.48864C37.839 9.48864 37.4621 9.55492 37.1477 9.6875C36.8333 9.82008 36.5928 10 36.4261 10.2273C36.2595 10.4545 36.1742 10.714 36.1705 11.0057C36.1705 11.2481 36.2254 11.4583 36.3352 11.6364C36.4489 11.8144 36.6023 11.9659 36.7955 12.0909C36.9886 12.2121 37.2027 12.3144 37.4375 12.3977C37.6723 12.4811 37.9091 12.5511 38.1477 12.608L39.2386 12.8807C39.678 12.983 40.1004 13.1212 40.5057 13.2955C40.9148 13.4697 41.2803 13.6894 41.6023 13.9545C41.928 14.2197 42.1856 14.5398 42.375 14.9148C42.5644 15.2898 42.6591 15.7292 42.6591 16.233C42.6591 16.9148 42.4848 17.5152 42.1364 18.0341C41.7879 18.5492 41.2841 18.9527 40.625 19.2443C39.9697 19.5322 39.1761 19.6761 38.2443 19.6761C37.339 19.6761 36.553 19.536 35.8864 19.2557C35.2235 18.9754 34.7045 18.5663 34.3295 18.0284C33.9583 17.4905 33.7576 16.8352 33.7273 16.0625H35.8011C35.8314 16.4678 35.9564 16.8049 36.1761 17.0739C36.3958 17.3428 36.6818 17.5436 37.0341 17.6761C37.3902 17.8087 37.7879 17.875 38.2273 17.875C38.6856 17.875 39.0871 17.8068 39.4318 17.6705C39.7803 17.5303 40.053 17.3371 40.25 17.0909C40.447 16.8409 40.5473 16.5492 40.5511 16.2159C40.5473 15.9129 40.4583 15.6629 40.2841 15.4659C40.1098 15.2652 39.8655 15.0985 39.5511 14.9659C39.2405 14.8295 38.8769 14.7083 38.4602 14.6023L37.1364 14.2614C36.178 14.0152 35.4205 13.642 34.8636 13.142C34.3106 12.6383 34.0341 11.9697 34.0341 11.1364C34.0341 10.4508 34.2197 9.85038 34.5909 9.33523C34.9659 8.82008 35.4754 8.42045 36.1193 8.13636C36.7633 7.84848 37.4924 7.70455 38.3068 7.70455C39.1326 7.70455 39.8561 7.84848 40.4773 8.13636C41.1023 8.42045 41.5928 8.81629 41.9489 9.32386C42.3049 9.82765 42.4886 10.4072 42.5 11.0625H40.4716ZM48.2543 19.6705C47.383 19.6705 46.6349 19.4792 46.0099 19.0966C45.3887 18.714 44.9096 18.1856 44.5724 17.5114C44.2391 16.8333 44.0724 16.053 44.0724 15.1705C44.0724 14.2841 44.2429 13.5019 44.5838 12.8239C44.9247 12.142 45.4058 11.6117 46.027 11.233C46.652 10.8504 47.3906 10.6591 48.2429 10.6591C48.9512 10.6591 49.5781 10.7898 50.1236 11.0511C50.6728 11.3087 51.1103 11.6742 51.4361 12.1477C51.7618 12.6174 51.9474 13.1667 51.9929 13.7955H50.027C49.9474 13.375 49.758 13.0246 49.4588 12.7443C49.1634 12.4602 48.7675 12.3182 48.2713 12.3182C47.8509 12.3182 47.4815 12.4318 47.1634 12.6591C46.8452 12.8826 46.5971 13.2045 46.419 13.625C46.2448 14.0455 46.1577 14.5492 46.1577 15.1364C46.1577 15.7311 46.2448 16.2424 46.419 16.6705C46.5933 17.0947 46.8376 17.4223 47.152 17.6534C47.4702 17.8807 47.8433 17.9943 48.2713 17.9943C48.5743 17.9943 48.8452 17.9375 49.0838 17.8239C49.3262 17.7064 49.5289 17.5379 49.6918 17.3182C49.8546 17.0985 49.9664 16.8314 50.027 16.517H51.9929C51.9437 17.1345 51.7618 17.6818 51.4474 18.1591C51.133 18.6326 50.705 19.0038 50.1634 19.2727C49.6217 19.5379 48.9853 19.6705 48.2543 19.6705ZM57.4886 19.6705C56.6364 19.6705 55.8977 19.483 55.2727 19.108C54.6477 18.733 54.1629 18.2083 53.8182 17.5341C53.4773 16.8598 53.3068 16.072 53.3068 15.1705C53.3068 14.2689 53.4773 13.4792 53.8182 12.8011C54.1629 12.1231 54.6477 11.5966 55.2727 11.2216C55.8977 10.8466 56.6364 10.6591 57.4886 10.6591C58.3409 10.6591 59.0795 10.8466 59.7045 11.2216C60.3295 11.5966 60.8125 12.1231 61.1534 12.8011C61.4981 13.4792 61.6705 14.2689 61.6705 15.1705C61.6705 16.072 61.4981 16.8598 61.1534 17.5341C60.8125 18.2083 60.3295 18.733 59.7045 19.108C59.0795 19.483 58.3409 19.6705 57.4886 19.6705ZM57.5 18.0227C57.9621 18.0227 58.3485 17.8958 58.6591 17.642C58.9697 17.3845 59.2008 17.0398 59.3523 16.608C59.5076 16.1761 59.5852 15.6951 59.5852 15.1648C59.5852 14.6307 59.5076 14.1477 59.3523 13.7159C59.2008 13.2803 58.9697 12.9337 58.6591 12.6761C58.3485 12.4186 57.9621 12.2898 57.5 12.2898C57.0265 12.2898 56.6326 12.4186 56.3182 12.6761C56.0076 12.9337 55.7746 13.2803 55.6193 13.7159C55.4678 14.1477 55.392 14.6307 55.392 15.1648C55.392 15.6951 55.4678 16.1761 55.6193 16.608C55.7746 17.0398 56.0076 17.3845 56.3182 17.642C56.6326 17.8958 57.0265 18.0227 57.5 18.0227ZM65.473 7.86364V19.5H63.4162V7.86364H65.473ZM67.5881 19.5V10.7727H69.6449V19.5H67.5881ZM68.6222 9.53409C68.2964 9.53409 68.0161 9.42614 67.7812 9.21023C67.5464 8.99053 67.429 8.72727 67.429 8.42045C67.429 8.10985 67.5464 7.84659 67.7812 7.63068C68.0161 7.41098 68.2964 7.30114 68.6222 7.30114C68.9517 7.30114 69.232 7.41098 69.4631 7.63068C69.6979 7.84659 69.8153 8.10985 69.8153 8.42045C69.8153 8.72727 69.6979 8.99053 69.4631 9.21023C69.232 9.42614 68.9517 9.53409 68.6222 9.53409ZM78.1747 11.0625C78.1217 10.5663 77.8982 10.1799 77.5043 9.90341C77.1141 9.62689 76.6065 9.48864 75.9815 9.48864C75.5421 9.48864 75.1652 9.55492 74.8509 9.6875C74.5365 9.82008 74.2959 10 74.1293 10.2273C73.9626 10.4545 73.8774 10.714 73.8736 11.0057C73.8736 11.2481 73.9285 11.4583 74.0384 11.6364C74.152 11.8144 74.3054 11.9659 74.4986 12.0909C74.6918 12.2121 74.9058 12.3144 75.1406 12.3977C75.3755 12.4811 75.6122 12.5511 75.8509 12.608L76.9418 12.8807C77.3812 12.983 77.8035 13.1212 78.2088 13.2955C78.6179 13.4697 78.9834 13.6894 79.3054 13.9545C79.6312 14.2197 79.8887 14.5398 80.0781 14.9148C80.2675 15.2898 80.3622 15.7292 80.3622 16.233C80.3622 16.9148 80.188 17.5152 79.8395 18.0341C79.491 18.5492 78.9872 18.9527 78.3281 19.2443C77.6728 19.5322 76.8793 19.6761 75.9474 19.6761C75.0421 19.6761 74.2562 19.536 73.5895 19.2557C72.9266 18.9754 72.4077 18.5663 72.0327 18.0284C71.6615 17.4905 71.4607 16.8352 71.4304 16.0625H73.5043C73.5346 16.4678 73.6596 16.8049 73.8793 17.0739C74.099 17.3428 74.3849 17.5436 74.7372 17.6761C75.0933 17.8087 75.491 17.875 75.9304 17.875C76.3887 17.875 76.7902 17.8068 77.1349 17.6705C77.4834 17.5303 77.7562 17.3371 77.9531 17.0909C78.1501 16.8409 78.2505 16.5492 78.2543 16.2159C78.2505 15.9129 78.1615 15.6629 77.9872 15.4659C77.813 15.2652 77.5687 15.0985 77.2543 14.9659C76.9437 14.8295 76.58 14.7083 76.1634 14.6023L74.8395 14.2614C73.8812 14.0152 73.1236 13.642 72.5668 13.142C72.0137 12.6383 71.7372 11.9697 71.7372 11.1364C71.7372 10.4508 71.9228 9.85038 72.294 9.33523C72.669 8.82008 73.1785 8.42045 73.8224 8.13636C74.4664 7.84848 75.1955 7.70455 76.0099 7.70455C76.8357 7.70455 77.5592 7.84848 78.1804 8.13636C78.8054 8.42045 79.2959 8.81629 79.652 9.32386C80.008 9.82765 80.1918 10.4072 80.2031 11.0625H78.1747ZM85.9574 19.6705C85.0862 19.6705 84.3381 19.4792 83.7131 19.0966C83.0919 18.714 82.6127 18.1856 82.2756 17.5114C81.9422 16.8333 81.7756 16.053 81.7756 15.1705C81.7756 14.2841 81.946 13.5019 82.2869 12.8239C82.6278 12.142 83.1089 11.6117 83.7301 11.233C84.3551 10.8504 85.0938 10.6591 85.946 10.6591C86.6544 10.6591 87.2813 10.7898 87.8267 11.0511C88.3759 11.3087 88.8134 11.6742 89.1392 12.1477C89.465 12.6174 89.6506 13.1667 89.696 13.7955H87.7301C87.6506 13.375 87.4612 13.0246 87.1619 12.7443C86.8665 12.4602 86.4706 12.3182 85.9744 12.3182C85.554 12.3182 85.1847 12.4318 84.8665 12.6591C84.5483 12.8826 84.3002 13.2045 84.1222 13.625C83.9479 14.0455 83.8608 14.5492 83.8608 15.1364C83.8608 15.7311 83.9479 16.2424 84.1222 16.6705C84.2964 17.0947 84.5407 17.4223 84.8551 17.6534C85.1733 17.8807 85.5464 17.9943 85.9744 17.9943C86.2775 17.9943 86.5483 17.9375 86.7869 17.8239C87.0294 17.7064 87.232 17.5379 87.3949 17.3182C87.5578 17.0985 87.6695 16.8314 87.7301 16.517H89.696C89.6468 17.1345 89.465 17.6818 89.1506 18.1591C88.8362 18.6326 88.4081 19.0038 87.8665 19.2727C87.3248 19.5379 86.6884 19.6705 85.9574 19.6705ZM93.8963 19.6761C93.3433 19.6761 92.8452 19.5777 92.402 19.3807C91.9626 19.1799 91.6141 18.8845 91.3565 18.4943C91.1027 18.1042 90.9759 17.6231 90.9759 17.0511C90.9759 16.5587 91.0668 16.1515 91.2486 15.8295C91.4304 15.5076 91.6785 15.25 91.9929 15.0568C92.3073 14.8636 92.6615 14.7178 93.0554 14.6193C93.4531 14.517 93.8641 14.4432 94.2884 14.3977C94.7997 14.3447 95.2145 14.2973 95.5327 14.2557C95.8509 14.2102 96.0819 14.142 96.2259 14.0511C96.3736 13.9564 96.4474 13.8106 96.4474 13.6136V13.5795C96.4474 13.1515 96.3205 12.8201 96.0668 12.5852C95.813 12.3504 95.4474 12.233 94.9702 12.233C94.4664 12.233 94.0668 12.3428 93.7713 12.5625C93.4796 12.7822 93.2827 13.0417 93.1804 13.3409L91.2599 13.0682C91.4115 12.5379 91.6615 12.0947 92.0099 11.7386C92.3584 11.3788 92.7846 11.1098 93.2884 10.9318C93.7921 10.75 94.349 10.6591 94.9588 10.6591C95.3793 10.6591 95.7978 10.7083 96.2145 10.8068C96.6312 10.9053 97.0118 11.0682 97.3565 11.2955C97.7012 11.5189 97.9777 11.8239 98.1861 12.2102C98.3982 12.5966 98.5043 13.0795 98.5043 13.6591V19.5H96.527V18.3011H96.4588C96.3338 18.5436 96.1577 18.7708 95.9304 18.983C95.7069 19.1913 95.4247 19.3598 95.0838 19.4886C94.7467 19.6136 94.3509 19.6761 93.8963 19.6761ZM94.4304 18.1648C94.8433 18.1648 95.2012 18.0833 95.5043 17.9205C95.8073 17.7538 96.0402 17.5341 96.2031 17.2614C96.3698 16.9886 96.4531 16.6913 96.4531 16.3693V15.3409C96.3887 15.3939 96.2789 15.4432 96.1236 15.4886C95.9721 15.5341 95.8016 15.5739 95.6122 15.608C95.4228 15.642 95.2353 15.6723 95.0497 15.6989C94.8641 15.7254 94.7031 15.7481 94.5668 15.767C94.2599 15.8087 93.9853 15.8769 93.7429 15.9716C93.5005 16.0663 93.3092 16.1989 93.169 16.3693C93.0289 16.536 92.9588 16.7519 92.9588 17.017C92.9588 17.3958 93.0971 17.6818 93.3736 17.875C93.6501 18.0682 94.0024 18.1648 94.4304 18.1648ZM102.629 14.3864V19.5H100.572V10.7727H102.538V12.2557H102.641C102.841 11.767 103.161 11.3788 103.601 11.0909C104.044 10.803 104.591 10.6591 105.243 10.6591C105.845 10.6591 106.37 10.7879 106.817 11.0455C107.268 11.303 107.616 11.6761 107.862 12.1648C108.112 12.6534 108.235 13.2462 108.232 13.9432V19.5H106.175V14.2614C106.175 13.678 106.023 13.2216 105.72 12.892C105.421 12.5625 105.006 12.3977 104.476 12.3977C104.116 12.3977 103.796 12.4773 103.516 12.6364C103.239 12.7917 103.021 13.017 102.862 13.3125C102.707 13.608 102.629 13.9659 102.629 14.3864Z" fill="#101828"/>
<defs>
<clipPath id="clip0_1_31">
<rect y="0.5" width="28" height="27" rx="4" fill="white"/>
</clipPath>
</defs>
</svg>
