<svg width="16" height="16" viewBox="0 0 16 16" fill="none" xmlns="http://www.w3.org/2000/svg">
<path d="M14.4897 8.50145L12.9357 8.60845C12.5187 8.63845 12.3467 9.14795 12.6647 9.41245L13.8587 10.39C14.1192 10.604 14.5157 10.492 14.6202 10.176L14.9747 9.11245C15.0842 8.79645 14.8287 8.47595 14.4897 8.50145ZM10.8752 1.34545L10.5152 2.79545C10.4152 3.18545 10.8452 3.50045 11.1852 3.28545L12.4552 2.49545C12.7302 2.32545 12.7452 1.92545 12.4802 1.73545L11.5902 1.09045C11.53 1.04555 11.4596 1.01622 11.3853 1.00506C11.311 0.993901 11.2351 1.00127 11.1644 1.0265C11.0936 1.05173 11.0302 1.09405 10.9798 1.14969C10.9293 1.20534 10.8934 1.27258 10.8752 1.34545ZM3.21517 2.49745L4.48017 3.28745C4.82017 3.50245 5.25017 3.19245 5.15517 2.79745L4.79517 1.34745C4.77673 1.27474 4.74079 1.20763 4.69047 1.15199C4.64015 1.09635 4.57699 1.05385 4.50649 1.02822C4.43598 1.00258 4.36028 0.994573 4.28597 1.0049C4.21167 1.01522 4.14101 1.04357 4.08017 1.08745L3.19017 1.73245C2.92517 1.93245 2.94017 2.32745 3.21517 2.49745ZM2.09267 10.3565L3.23767 9.39645C3.54767 9.13645 3.38267 8.63145 2.98267 8.60645L1.49267 8.50145C1.41763 8.49619 1.34244 8.50941 1.2737 8.53996C1.20496 8.5705 1.14475 8.61744 1.09836 8.67666C1.05197 8.73588 1.02082 8.80557 1.00762 8.87963C0.994425 8.95369 0.999593 9.02986 1.02267 9.10145L1.36267 10.1465C1.46267 10.4565 1.84767 10.5665 2.09267 10.3565ZM8.89767 14.0025L8.33767 12.6175C8.18767 12.2425 7.65767 12.2425 7.50767 12.6175L6.94767 14.0025C6.82767 14.3025 7.04767 14.6325 7.37267 14.6325H8.47267C8.54756 14.6321 8.62122 14.6134 8.68726 14.5781C8.75329 14.5427 8.8097 14.4918 8.85158 14.4297C8.89346 14.3676 8.91955 14.2963 8.92759 14.2218C8.93562 14.1473 8.92535 14.072 8.89767 14.0025Z" fill="#FCD53F"/>
<path d="M8.78253 1.66237L9.64553 3.52238C9.80853 3.86938 10.129 4.11237 10.504 4.16737L12.532 4.47938C13.4495 4.61838 13.8195 5.74438 13.1785 6.40887L11.634 8.00037C11.5096 8.12863 11.4171 8.28433 11.364 8.4549C11.3108 8.62548 11.2985 8.80616 11.328 8.98238L11.683 11.1694C11.8365 12.1119 10.8395 12.8159 10.006 12.3544L8.30353 11.4074C8.1349 11.3123 7.9446 11.2624 7.75103 11.2624C7.55745 11.2624 7.36715 11.3123 7.19853 11.4074L5.49653 12.3549C4.66253 12.8159 3.66603 12.1119 3.81903 11.1699L4.17403 8.98238C4.20354 8.80616 4.19122 8.62548 4.13807 8.4549C4.08492 8.28433 3.99242 8.12863 3.86803 8.00037L2.32403 6.40837C1.67753 5.73837 2.05253 4.61787 2.97053 4.47887L4.99803 4.16637C5.1828 4.13682 5.35757 4.06263 5.50718 3.95023C5.65679 3.83783 5.7767 3.69062 5.85653 3.52137L6.72003 1.66188C7.12953 0.779375 8.37303 0.779375 8.78203 1.66188" fill="#FCD53F"/>
</svg>
